<svg class="solid" height="20" viewBox="0 0 19 20" width="19">
   <g>
      <path d="M4.429,9.407l1.013-2.595c0.574-1.472,1.79-1.419,2.242,0.097l1.787,5.988c0.179,0.599,0.114,0.597,0.338,0.008 l1.314-3.457c0.542-1.427,1.853-1.547,2.642-0.237l0.438,0.728h3.249h0.276h0.424h0.576c-0.033-5.075-4.154-9.18-9.237-9.18 c-4.904,0-8.904,3.823-9.21,8.649L4.429,9.407z"></path>
      <path d="M18.152,10.94h-0.479h-3.753c-0.175,0-0.338-0.092-0.428-0.242l-0.584-0.97c-0.358-0.594-0.604-0.572-0.85,0.077 l-1.314,3.456c-0.562,1.48-1.778,1.44-2.231-0.078L6.726,7.195c-0.181-0.606-0.125-0.604-0.353-0.02l-1.137,2.913 c-0.075,0.192-0.26,0.318-0.466,0.318H1.272H1.251H0.272c0.214,4.913,4.254,8.833,9.219,8.833c4.787,0,8.723-3.64,9.192-8.303 h-0.531V10.94z"></path>
   </g>
   <rect fill="red" height="0.003" width="0.479" x="17.847" y="10.766"></rect>
</svg>