<svg xmlns:xlink="http://www.w3.org/1999/xlink" height="14px" version="1.1" viewBox="0 0 22 14" width="22px" xmlns="http://www.w3.org/2000/svg">
   <g fill="#9AA3AC" fill-rule="evenodd" stroke="none" stroke-width="1">
      <path d="M11.0315755,9.87937617 C12.6036701,9.87937617 13.8920064,8.59103991 13.8920064,7.01894531 C13.8920064,5.44685072 12.6036701,4.15851446 11.0315755,4.15851446 C9.45948093,4.15851446 8.17114467,5.44685072 8.17114467,7.01894531 C8.17114467,8.59103991 9.45948093,9.87937617 11.0315755,9.87937617 Z M11.0315755,10.8793762 C8.90719618,10.8793762 7.17114467,9.14332466 7.17114467,7.01894531 C7.17114467,4.89456597 8.90719618,3.15851446 11.0315755,3.15851446 C13.1559549,3.15851446 14.8920064,4.89456597 14.8920064,7.01894531 C14.8920064,9.14332466 13.1559549,10.8793762 11.0315755,10.8793762 Z"></path>
      <path d="M0.784606363,7.29629541 L0.599706298,7.01894531 L0.784606363,6.74159521 C3.09729653,3.27255997 6.60920582,0.5 11.0315755,0.5 C15.4539452,0.5 18.9658545,3.27255997 21.2785447,6.74159521 L21.4634447,7.01894531 L21.2785447,7.29629541 C18.9658545,10.7653307 15.4539452,13.5378906 11.0315755,13.5378906 C6.60920582,13.5378906 3.09729653,10.7653307 0.784606363,7.29629541 Z M11.0315755,12.5378906 C14.920033,12.5378906 18.1114125,10.1070805 20.2576988,7.01894531 C18.1114125,3.93081012 14.920033,1.5 11.0315755,1.5 C7.14311808,1.5 3.95173857,3.93081012 1.80545224,7.01894531 C3.95173857,10.1070805 7.14311808,12.5378906 11.0315755,12.5378906 Z"></path>
   </g>
</svg>