<svg xmlns:xlink="http://www.w3.org/1999/xlink" height="21px" version="1.1" viewBox="0 0 18 21" width="18px" xmlns="http://www.w3.org/2000/svg">
   <g>
      <path d="M7.0119539,3.2075415 L7.40027579,2.72017306 C4.28893812,3.43312094 2.01737858,6.27353318 2.01737858,9.52932402 L2.01737858,15.0482984 L2.16302114,14.6955509 L0.863966411,16.0005345 C0.162266719,16.7054368 0.531485356,17.5551982 1.51846633,17.5551982 L16.5021867,17.5551982 C17.4956337,17.5551982 17.8593786,16.7064336 17.1566866,16.0005345 L15.8576319,14.6955509 L16.0032744,15.0482984 L16.0032744,9.52932402 C16.0032744,6.27355389 13.7316876,3.43312678 10.620379,2.72017347 L11.0086991,3.2075415 L11.0086991,2.50517483 C11.0086991,1.37651058 10.1361479,0.5 9.0103265,0.5 C7.88450511,0.5 7.0119539,1.37651058 7.0119539,2.50517483 L7.0119539,3.2075415 Z M9.0103265,1.5 C9.5828471,1.5 10.0086991,1.92778437 10.0086991,2.50517483 L10.0086991,3.2075415 L10.0086991,3.60592637 L10.3970192,3.69490954 C13.0546055,4.30389283 15.0032744,6.74053842 15.0032744,9.52932402 L15.0032744,15.0482984 L15.0032744,15.2547386 L15.148917,15.4010459 L16.4479717,16.7060295 C16.5179593,16.7763365 16.6127299,16.5551982 16.5021867,16.5551982 L1.51846633,16.5551982 C1.41129622,16.5551982 1.50595615,16.7730592 1.5726813,16.7060295 L2.87173603,15.4010459 L3.01737858,15.2547386 L3.01737858,15.0482984 L3.01737858,9.52932402 C3.01737858,6.74051695 4.96602042,4.30388871 7.62363201,3.69490995 L8.0119539,3.60592788 L8.0119539,3.2075415 L8.0119539,2.50517483 C8.0119539,1.92778437 8.43780589,1.5 9.0103265,1.5 Z"></path>
      <rect height="1.66015625" width="2.57819185" x="7.71090407" y="18.4190193"></rect>
   </g>
</svg>