<svg class="solid" height="23" viewBox="0 0 17 23" width="17">
   <g>
      <path d="M13.553,7.993c-0.134-0.159-0.134-0.159-0.267-0.317c-2.142-2.546-2.86-3.965-2.704-6.264 c0.034-0.497-0.6-0.732-0.899-0.334C6.82,4.894,5.904,7.106,6.295,11.322c-0.532-0.271-1.043-0.659-1.526-1.139 c-0.358-0.356-0.676-0.738-0.95-1.121C3.656,8.835,3.545,8.661,3.492,8.567C3.309,8.248,2.855,8.228,2.646,8.531 C2.576,8.633,2.459,8.816,2.31,9.07c-0.246,0.42-0.491,0.891-0.72,1.402c-0.658,1.47-1.055,2.977-1.055,4.445 c0,4.249,2.773,7.621,7.705,7.621c5.064,0,8.583-3.598,8.533-7.653C16.715,12.297,15.853,10.723,13.553,7.993z M12.157,18.669 c-0.217,0.171-0.531,0.134-0.702-0.083c-0.171-0.217-0.134-0.531,0.083-0.702c0.048-0.038,0.141-0.119,0.264-0.237 c0.209-0.202,0.418-0.433,0.613-0.69c0.719-0.946,1.039-1.945,0.771-2.941c-0.072-0.267,0.086-0.541,0.353-0.613 s0.541,0.086,0.613,0.353c0.361,1.344-0.052,2.636-0.94,3.805C12.82,18.077,12.429,18.455,12.157,18.669z"></path>
   </g>
</svg>