<svg class="solid" height="16" viewBox="0 0 22 16" width="22">
   <g>
      <path d="M20.137,4.605c-0.831-0.481-1.885-0.361-2.591,0.293c-0.358,0.332-0.587,0.746-0.667,1.22 c-0.081,0.481-0.018,0.938,0.192,1.361c-0.545,0.523-0.854,0.819-1.169,1.12c-0.122,0.117-0.122,0.117-0.244,0.233 c-0.045,0.024-0.045,0.024-0.062,0.035c-0.502,0.311-1.006,0.281-1.464-0.088c-0.392-0.316-0.669-0.753-0.888-1.364 c-0.138-0.384-0.247-0.695-0.488-1.387c-0.201-0.574-0.309-0.885-0.418-1.191c0.536-0.415,0.826-0.999,0.841-1.698 c0.022-1.04-0.729-1.97-1.749-2.178c-1.037-0.211-2.072,0.339-2.476,1.315C8.575,3.196,8.856,4.247,9.628,4.839 C9.55,5.058,9.472,5.282,9.332,5.685C9.108,6.333,9.007,6.618,8.876,6.969C8.743,7.325,8.601,7.641,8.324,8.223 C8.297,8.281,8.25,8.345,8.145,8.468C8.123,8.494,8.123,8.494,8.099,8.522C7.512,9.213,6.764,9.266,6.105,8.663 c-0.284-0.26-0.506-0.48-1.002-0.984C5.019,7.593,4.954,7.527,4.898,7.47c0.404-0.855,0.241-1.818-0.372-2.468 c-0.671-0.711-1.743-0.895-2.61-0.445c-0.878,0.455-1.333,1.42-1.14,2.403c0.18,0.917,0.861,1.521,1.855,1.706 c0.046,0.229,0.1,0.494,0.12,0.598c0.107,0.535,0.188,0.943,0.371,1.86l0.048,0.241c0.338,1.694,0.521,2.608,0.726,3.633 c0.098,0.488,0.341,0.704,0.829,0.704c4.348,0,8.478,0,12.477,0c0.52,0,0.765-0.196,0.867-0.705c0.192-0.959,0.346-1.733,0.689-3.45 c0.041-0.207,0.041-0.207,0.083-0.414c0.165-0.828,0.234-1.173,0.331-1.656c0.031-0.156,0.052-0.26,0.104-0.519 c0.029-0.141,0.045-0.221,0.059-0.292c0.966-0.175,1.631-0.753,1.843-1.651C21.402,6.072,20.978,5.091,20.137,4.605z"></path>
   </g>
</svg>