<svg enable-background="new 0 0 1000 1000" height="19" viewBox="0 0 1000 1000" width="19" x="0px" y="0px">
   <g fill="#959EA7">
      <path d="M263.8,571.6c0.2,0,0.4,0.2,0.5,0.4"></path><path d="M243.6,571.2"></path><path d="M524.6,618.3"></path><path d="M253.1,609.2"></path>
      <path d="M964.8,411.3L546,56.8c-25.7-21.7-66.3-21.7-92.1,0L35.2,411.3c-14.5,12.3-23.4,29.5-25,48.5c-1.6,19,4.3,37.4,16.6,51.9c18,21.2,48.1,30.1,74.4,22.3v373.5c0,28.7,23.3,52,52,52h236.4c11,0,19.9-8.9,19.9-19.9V607h181v332.6c0,11,8.9,19.9,19.9,19.9h236.3c28.7,0,52-23.3,52-52V534.1c26.4,7.7,56.4-1.2,74.4-22.4c12.3-14.5,18.2-33,16.6-51.9C988.2,440.8,979.3,423.6,964.8,411.3 M942.8,486c-10.8,12.8-31.5,14.6-44.4,3.7l-6.7-5.7c-5.9-5-14.2-6.1-21.2-2.9c-7,3.3-11.5,10.3-11.5,18v408.3c0,6.7-5.5,12.2-12.3,12.2H630.3V587.1c0-11-8.9-19.9-19.9-19.9H389.6c-11,0-19.9,8.9-19.9,19.9v332.6H153.3c-6.7,0-12.2-5.5-12.2-12.2V499.2c0-7.7-4.5-14.8-11.5-18c-7-3.3-15.3-2.1-21.2,2.9l-6.7,5.7c-12.9,10.9-33.5,9.2-44.4-3.7c-5.4-6.4-8-14.6-7.4-23c0.7-8.4,4.6-16,11.1-21.4L479.6,87.1c11.4-9.6,29.4-9.6,40.8,0l418.8,354.5c6.4,5.4,10.3,13,11,21.4C950.8,471.5,948.2,479.6,942.8,486"></path>
   </g>
</svg>