<svg viewBox="0 0 1000 1000" x="0px" y="0px">
   <g fill="#959EA7" fill-rule="evenodd" stroke="none" stroke-width="1">
      <path d="M876.9,85.4h-94.2V28.8c0-10.4-8.5-18.8-18.8-18.8S745,18.5,745,28.8v56.5H255V28.8c0-10.4-8.5-18.8-18.8-18.8s-18.8,8.5-18.8,18.8v56.5h-94.2c-41.7,0-75.4,33.7-75.4,75.4v150.8v37.7v565.4c0,41.7,33.7,75.4,75.4,75.4h753.8c41.7,0,75.4-33.7,75.4-75.4V349.2v-37.7V160.8C952.3,119.1,918.6,85.4,876.9,85.4z M914.6,914.6c0,20.7-17,37.7-37.7,37.7H123.1c-20.7,0-37.7-17-37.7-37.7V349.2h829.2V914.6z M914.6,311.5H85.4V160.8c0-20.7,17-37.7,37.7-37.7h753.8c20.7,0,37.7,17,37.7,37.7V311.5z M801.5,613.1H575.4v226.2h226.2V613.1z M763.8,801.5H613.1V650.8h150.8V801.5z"></path>
   </g>
</svg>