<svg class="solid" height="21" viewBox="0 0 21 21" width="21">
   <g>
      <path d="M19.399,7.131L13.802,6.69l-2.149-5.187c-0.593-1.432-1.86-1.432-2.453,0L7.05,6.69L1.453,7.131 c-1.546,0.122-1.936,1.327-0.758,2.333l4.269,3.647l-1.311,5.46c-0.362,1.508,0.664,2.252,1.985,1.442l4.787-2.934l4.787,2.934 c1.322,0.81,2.347,0.065,1.985-1.442l-1.311-5.46l4.269-3.647C21.336,8.457,20.944,7.252,19.399,7.131z M8.483,12.167l-0.569,2.425 c-0.063,0.269-0.332,0.436-0.601,0.372c-0.269-0.063-0.436-0.332-0.373-0.601l0.51-2.175l-1.34-1.533 c-0.182-0.208-0.161-0.524,0.047-0.706c0.208-0.182,0.524-0.161,0.706,0.047l1.509,1.727C8.478,11.845,8.52,12.01,8.483,12.167z"></path>
   </g>
</svg>