<svg height="18" viewBox="0 0 21 18" width="21" x="0px" y="0px">
   <g fill="#959EA7" fill-rule="evenodd" stroke="none" stroke-width="1">
      <path d="M1.25614421,2.50053288 L1.25614421,15.8328005 C1.25614421,16.3915975 1.70157941,16.8395182 2.2500893,16.8395182 L17.7499107,16.8395182 C18.3001457,16.8395182 18.7438558,16.3922323 18.7438558,15.8328005 L18.7438558,2.50053288 C18.7438558,1.94173585 18.2984206,1.4938151 17.7499107,1.4938151 L2.2500893,1.4938151 C1.69985433,1.4938151 1.25614421,1.94110104 1.25614421,2.50053288 Z M0.256144206,2.50053288 C0.256144206,1.39225326 1.14412984,0.493815104 2.2500893,0.493815104 L17.7499107,0.493815104 C18.8511362,0.493815104 19.7438558,1.38986969 19.7438558,2.50053288 L19.7438558,15.8328005 C19.7438558,16.9410801 18.8558702,17.8395182 17.7499107,17.8395182 L2.2500893,17.8395182 C1.14886383,17.8395182 0.256144206,16.9434636 0.256144206,15.8328005 L0.256144206,2.50053288 Z"></path>
      <polygon points="0.75 5.91666667 19.266667 5.91666667 19.266667 4.91666667 0.75 4.91666667"></polygon>
      <path d="M4.02307129,10.1458702 C4.02263311,10.1434565 5.97664382,10.1435954 5.97664382,10.1435954 C5.97678981,10.1440336 5.97692871,8.18746313 5.97692871,8.18746313 C5.97736689,8.18987685 4.02079646,8.18973796 4.02079646,8.18973796 C4.02321019,8.18929978 4.02307129,10.1458702 4.02307129,10.1458702 Z M3.02307129,8.18746313 C3.02307129,7.63643473 3.47662901,7.18973796 4.02079646,7.18973796 L5.97920354,7.18973796 C6.53023193,7.18973796 6.97692871,7.64329568 6.97692871,8.18746313 L6.97692871,10.1458702 C6.97692871,10.6968986 6.52337099,11.1435954 5.97920354,11.1435954 L4.02079646,11.1435954 C3.46976807,11.1435954 3.02307129,10.6900377 3.02307129,10.1458702 L3.02307129,8.18746313 Z"></path>
   </g>
</svg>