<svg xmlns:xlink="http://www.w3.org/1999/xlink" xmlns="http://www.w3.org/2000/svg" height="16" viewBox="0 0 20 16" width="20" x="0px" y="0px">
   <g fill="#959EA7" fill-rule="evenodd" stroke="none" stroke-width="1">
      <path d="M0.5,13.829696 C0.5,15.2088377 1.62000841,16.3235294 3.00595873,16.3235294 L16.7822766,16.3235294 C18.1665569,16.3235294 19.2882353,15.2098223 19.2882353,13.829696 L19.2882353,4.95294118 C19.2882353,4.6767988 19.0643777,4.45294118 18.7882353,4.45294118 C18.5120929,4.45294118 18.2882353,4.6767988 18.2882353,4.95294118 L18.2882353,13.829696 C18.2882353,14.6559347 17.6158624,15.3235294 16.7822766,15.3235294 L3.00595873,15.3235294 C2.1712308,15.3235294 1.5,14.6554849 1.5,13.829696 L1.5,4.95294118 C1.5,4.6767988 1.27614237,4.45294118 1,4.45294118 C0.723857625,4.45294118 0.5,4.6767988 0.5,4.95294118 L0.5,13.829696 Z"></path>
      <path d="M16.7822766,0.5 L3.00595873,0.5 C1.62328553,0.5 0.5,1.61975396 0.5,2.99770269 L0.5,5.04278075 L0.5,5.3395973 L0.760573935,5.48172854 L9.65469158,10.3330654 L9.89411765,10.4636615 L10.1335437,10.3330654 L19.0276614,5.48172854 L19.2882353,5.3395973 L19.2882353,5.04278075 L19.2882353,2.99770269 C19.2882353,1.61663946 18.168443,0.5 16.7822766,0.5 Z M18.2882353,5.04278075 L18.5488092,4.60383296 L9.65469158,9.45516986 L10.1335437,9.45516986 L1.23942607,4.60383296 L1.5,5.04278075 L1.5,2.99770269 C1.5,2.17274484 2.1748666,1.5 3.00595873,1.5 L16.7822766,1.5 C17.6167884,1.5 18.2882353,2.16955637 18.2882353,2.99770269 L18.2882353,5.04278075 Z"></path>
   </g>
</svg>