<?xml version="1.0" standalone="no"?>
<!DOCTYPE svg PUBLIC "-//W3C//DTD SVG 20010904//EN"
 "http://www.w3.org/TR/2001/REC-SVG-20010904/DTD/svg10.dtd">
<svg xmlns:xlink="http://www.w3.org/1999/xlink" xmlns="http://www.w3.org/2000/svg" height="17px" version="1.0" viewBox="0 0 17 17" width="17px">
   <g fill="#9AA3AC" fill-rule="evenodd" stroke="none" stroke-width="1">
      <path d="M8.95102649,15.6493443 C4.48660213,15.6493443 0.862761171,12.153078 0.862761171,7.82739795 C0.862761171,3.50414601 4.48787094,0.00545155742 8.95102649,0.00545155742 C13.4167793,0.00545155742 17.0397941,3.50685637 17.0319954,7.83469435 C17.0319954,9.3562415 16.5803393,10.8143595 15.7150666,12.1059669 C15.706886,12.1159654 15.6944335,12.1348328 15.6734817,12.1680147 C15.631017,12.2440972 15.6049685,12.3249221 15.597122,12.4054935 L16.6151202,16.4774861 L15.7282364,16.1512395 L12.6379087,15.0136155 C12.5678202,14.983307 12.4859246,14.9671301 12.3949315,14.9671301 C12.3137489,14.9671301 12.2339707,14.9814902 12.1604259,15.0088068 C12.1053323,15.058786 12.0734905,15.0694125 12.0339012,15.0613201 C11.0652106,15.4473753 10.0217217,15.6493443 8.95102649,15.6493443 Z M11.9409863,14.0294844 C12.0876766,13.9882965 12.2405737,13.9671301 12.3949315,13.9671301 C12.6195081,13.9671301 12.8364751,14.0099878 13.0089839,14.0854297 L15.1865918,14.8864783 L14.6095316,12.5782372 L14.5946028,12.4569694 C14.5946028,12.1838246 14.667871,11.9178884 14.8110536,11.6622829 C14.866889,11.5715503 14.8945668,11.5296144 14.9122673,11.5116914 C15.6400639,10.4217376 16.0319954,9.15643321 16.0319962,7.83379346 C16.0387846,4.0662501 12.8716791,1.00545156 8.95102649,1.00545156 C5.03236947,1.00545156 1.86276117,4.06452885 1.86276117,7.82739795 C1.86276117,11.5926152 5.03102675,14.6493443 8.95102649,14.6493443 C9.8388731,14.6493443 10.7041708,14.4919794 11.4863326,14.2025652 C11.5560329,14.1767748 11.6250729,14.1499359 11.6934099,14.1220662 C11.7362414,14.1006505 11.7592247,14.0912482 11.8209223,14.0694007 L11.9790362,14.0437424 C11.9034541,14.0178164 11.8750356,14.0209871 11.8300266,14.0648911 C11.7647764,14.1303622 11.6721042,14.26673 11.4863326,14.5400942 L11.4863326,14.1924326 L11.8122393,14.0713816 C11.8665568,14.0517989 11.9035696,14.0399903 11.9409863,14.0294844 Z"></path>
      <path d="M5.9767538,6.53424479 L12.2849697,6.53424479 C12.5611121,6.53424479 12.7849697,6.31038717 12.7849697,6.03424479 C12.7849697,5.75810242 12.5611121,5.53424479 12.2849697,5.53424479 L5.9767538,5.53424479 C5.70061142,5.53424479 5.4767538,5.75810242 5.4767538,6.03424479 C5.4767538,6.31038717 5.70061142,6.53424479 5.9767538,6.53424479 Z"></path>
      <path d="M5.9767538,9.82565104 L9.90593315,9.82565104 C10.1820755,9.82565104 10.4059332,9.60179342 10.4059332,9.32565104 C10.4059332,9.04950867 10.1820755,8.82565104 9.90593315,8.82565104 L5.9767538,8.82565104 C5.70061142,8.82565104 5.4767538,9.04950867 5.4767538,9.32565104 C5.4767538,9.60179342 5.70061142,9.82565104 5.9767538,9.82565104 Z"></path>
   </g>
</svg>