<svg xmlns:xlink="http://www.w3.org/1999/xlink" xmlns="http://www.w3.org/2000/svg" height="20" viewBox="0 0 1000 1000" width="20" x="0px" y="0px">
   <g fill="#959EA7" fill-rule="evenodd" stroke="none" stroke-width="1">
      <path d="M273.8,67.9c5.7,21.2,14.6,51.8,28.3,97.7c9.8,33.1,23.6,79.4,29.9,104.1c-3,3.1-7.2,7.2-13,12.4c-11.1,9.9-23.3,19.6-31.4,26.1c-9.6,7.6-30.9,29.7-21.7,70.6c2.3,10.4,6.6,22.3,13.1,36.4c8.9,19.3,22.7,44.1,40.9,73.8c30.2,49.2,63.6,97,65,99l2,2.8l2.3,2.6c1.5,1.6,36.6,40.8,75.7,79.8c23.2,23.2,43.3,41.8,59.8,55.4c26.5,22,49.5,36.6,75.5,36.6c14.6,0,28.3-4.7,39.5-13.6c8.1-6.4,20.3-16.1,32.5-24.7c6.4-4.5,11.3-7.6,15.1-9.9c22.5,11.7,64.6,35.7,94.6,52.7c41.7,23.7,69.4,39.3,88.8,49.7c-2.9,9.1-7,20.3-12.4,32.7c-14.7,33.5-27.1,48.6-30.3,51.2c-1.5,1.2-37.9,29.5-104.8,29.5c-37.6,0-77.6-9-118.9-26.8c-53.2-22.9-108.5-60.3-164.5-111.2l-2.2-2l-2.3-1.7c-18.3-13.5-54.9-48.3-125.8-137.5l-0.4-0.6l-0.5-0.6l0,0c-71.1-89.5-96.8-133.2-105.8-154.2l-1.2-2.7l-1.4-2.5c-35.8-64.1-59.4-124.7-70.1-180.3c-8.4-43.6-8.9-84.2-1.5-120.6c14.2-69.6,52.2-100.4,53.8-101.7c2.8-2.1,16.1-9,44.1-15.3C242.1,71.7,259,69.1,273.8,67.9 M290.3,10C248,10,174.6,23.6,146.8,45.7C112.4,73-18,220.1,150.2,521.1c14,32.5,48.7,85.4,113.5,167c0,0.1,0.1,0.1,0.1,0.2c0.1,0.1,0.1,0.1,0.1,0.2c0,0.1,0.1,0.1,0.1,0.2c0,0.1,0.1,0.1,0.1,0.1c64.8,81.6,108.5,127.3,137,148.4C533.1,957.1,643,990,723.1,990c74.8,0,123.7-28.7,140.3-41.9c40.3-32,84.9-161.2,65.9-164.2c-19-3-219.6-124.8-238.6-127.8c-0.7-0.1-1.5-0.2-2.4-0.2c-20.2,0-63.9,34.7-84.3,50.9c-1,0.8-2.3,1.2-3.9,1.2c-31.1,0-165.8-149.9-168.5-152.8C429.3,551.8,302,369.7,323.1,353c21.2-16.9,67.7-53.7,69-72.9c1.4-19.2-71.8-242.2-70.5-261.4C322,12.7,309.3,10,290.3,10L290.3,10z"></path>
   </g>
</svg>