<svg xmlns:xlink="http://www.w3.org/1999/xlink" xmlns="http://www.w3.org/2000/svg" height="19" viewBox="0 0 19 19" width="19" x="0px" y="0px">
   <g fill="#959EA7" fill-rule="evenodd" stroke="none" stroke-width="1">
      <path d="M9.22647474,9.72819362 C11.75801,9.72819362 13.8102249,7.67597878 13.8102249,5.14444349 C13.8102249,2.6129082 11.75801,0.560693359 9.22647474,0.560693359 C6.69493945,0.560693359 4.64272461,2.6129082 4.64272461,5.14444349 C4.64272461,7.67597878 6.69493945,9.72819362 9.22647474,9.72819362 Z M9.22647474,8.72819362 C7.24722419,8.72819362 5.64272461,7.12369403 5.64272461,5.14444349 C5.64272461,3.16519294 7.24722419,1.56069336 9.22647474,1.56069336 C11.2057253,1.56069336 12.8102249,3.16519294 12.8102249,5.14444349 C12.8102249,7.12369403 11.2057253,8.72819362 9.22647474,8.72819362 Z"></path>
      <path d="M18.5800781,19.3400391 C18.5800781,14.3473634 14.5327148,10.3 9.54003906,10.3 C4.54736335,10.3 0.5,14.3473634 0.5,19.3400391 L1.5,19.3400391 C1.5,14.8996481 5.0996481,11.3 9.54003906,11.3 C13.98043,11.3 17.5800781,14.8996481 17.5800781,19.3400391 L18.5800781,19.3400391 Z"></path>
   </g>
</svg>