<?xml version="1.0" standalone="no"?>
<!DOCTYPE svg PUBLIC "-//W3C//DTD SVG 20010904//EN"
 "http://www.w3.org/TR/2001/REC-SVG-20010904/DTD/svg10.dtd">
<svg version="1.0" xmlns="http://www.w3.org/2000/svg"
 width="500.000000pt" height="500.000000pt" viewBox="0 0 500.000000 500.000000"
 preserveAspectRatio="xMidYMid meet">

<g transform="translate(0.000000,500.000000) scale(0.100000,-0.100000)"
fill="#000000" stroke="none">
<path d="M2073 3293 c-20 -7 -17 -147 3 -179 35 -53 44 -54 434 -54 255 0 368
3 383 12 51 27 67 61 67 143 0 58 -2 67 -22 74 -12 4 -38 5 -57 2 -38 -6 -208
-6 -378 0 -78 3 -103 1 -103 -8 0 -17 -102 -17 -118 -1 -12 12 -181 20 -209
11z"/>
<path d="M2588 2100 c-15 -4 -29 -5 -32 -2 -3 3 -6 -205 -6 -461 0 -450 1
-467 19 -467 32 0 35 6 91 190 55 183 127 363 222 555 44 87 84 166 91 175 6
8 7 12 3 8 -5 -4 -16 -3 -23 4 -9 7 -17 8 -21 2 -9 -12 -55 -17 -47 -4 7 11
-8 14 -19 3 -10 -10 -256 -12 -250 -1 3 4 4 8 2 7 -2 0 -15 -4 -30 -9z"/>
<path d="M2058 2094 c-4 -3 29 -76 72 -162 115 -231 167 -360 230 -572 52
-175 59 -190 91 -190 18 0 19 17 19 465 0 398 -2 465 -14 465 -8 0 -18 -5 -21
-10 -5 -8 -12 -7 -22 1 -12 10 -16 10 -23 -2 -7 -11 -12 -11 -22 -1 -14 14
-32 16 -23 2 9 -14 -28 -13 -43 2 -8 8 -15 8 -27 -2 -10 -8 -19 -10 -23 -4 -9
12 -32 16 -32 5 0 -9 -116 -7 -141 3 -8 4 -18 4 -21 0z"/>
<path d="M3986 1648 c-13 -39 -14 -88 -3 -88 7 0 31 -38 54 -84 l41 -83 -111
35 c-62 20 -113 39 -115 42 -12 24 -24 34 -29 23 -2 -7 -16 -13 -29 -13 -25 0
-45 -31 -43 -68 0 -14 3 -13 16 6 15 22 47 29 70 14 28 -18 56 -208 39 -265
-8 -26 -7 -28 15 -25 16 2 25 12 31 36 5 17 13 32 18 32 17 0 11 17 -8 22 -13
4 -22 26 -36 88 -9 45 -15 84 -12 87 8 8 175 -45 215 -68 27 -16 36 -18 42 -7
13 19 11 35 -5 41 -21 8 -107 184 -114 235 -7 44 -28 68 -36 40z"/>
<path d="M946 1574 c-3 -9 -6 -25 -6 -36 0 -20 1 -20 19 -4 18 16 22 16 82 -4
35 -12 68 -25 73 -30 12 -12 -96 -93 -181 -136 -40 -20 -70 -41 -67 -46 8 -13
57 -9 105 8 57 20 169 43 169 35 0 -3 -9 -12 -20 -19 -29 -18 -80 -92 -80
-116 0 -29 57 -96 81 -96 35 0 120 38 174 79 29 22 55 37 59 34 3 -4 6 -26 6
-50 0 -23 5 -43 10 -43 6 0 10 6 10 13 0 28 36 47 88 47 29 0 52 -4 52 -8 0
-12 -44 -52 -58 -52 -7 0 -12 -6 -12 -14 0 -20 -71 -77 -90 -71 -19 5 -60 -28
-60 -49 0 -29 38 -17 94 29 31 25 58 45 60 45 2 0 14 -28 26 -62 26 -79 89
-198 112 -212 12 -7 25 -6 45 4 27 13 27 14 5 18 -12 2 -33 18 -47 36 -31 40
-80 149 -95 208 -11 43 -10 45 24 81 39 42 49 44 106 21 32 -13 40 -21 38 -38
-5 -32 -64 -58 -115 -52 -33 4 -41 3 -37 -8 3 -8 18 -19 34 -26 24 -10 35 -9
72 8 65 29 75 45 57 95 -12 35 -20 43 -53 52 -22 7 -42 17 -44 23 -2 7 -8 9
-14 6 -6 -4 -53 -7 -104 -8 -105 -1 -125 11 -80 48 30 25 38 59 14 64 -11 2
-25 -12 -43 -43 -41 -68 -162 -144 -232 -145 -43 0 -60 29 -42 71 15 38 145
159 170 159 23 0 25 28 3 37 -8 3 -29 -2 -47 -11 -28 -14 -151 -46 -178 -46
-6 0 18 21 53 48 51 38 63 53 63 76 0 26 -6 30 -85 61 -98 39 -106 41 -114 19z"/>
<path d="M3670 1401 c0 -10 11 -35 25 -55 31 -45 44 -101 45 -181 0 -78 -16
-110 -55 -110 -22 0 -35 8 -52 34 -28 41 -56 130 -59 186 -1 22 -7 40 -13 39
-6 -1 -15 -2 -21 -2 -5 -1 -9 -21 -9 -44 1 -37 -26 -186 -35 -195 -1 -2 -8 26
-15 62 -25 140 -47 149 -138 54 -32 -33 -59 -67 -61 -74 -2 -8 11 -21 27 -30
28 -14 46 -5 21 10 -7 4 -4 17 7 36 20 34 80 95 87 88 13 -13 37 -133 42 -216
7 -87 8 -92 24 -78 11 10 20 39 24 83 6 61 19 124 32 162 4 9 15 -11 29 -47
12 -35 28 -70 35 -78 26 -31 133 -10 146 28 11 32 8 156 -5 202 -7 26 -7 41
-1 43 15 5 12 22 -4 22 -8 0 -17 12 -21 27 -4 16 -11 34 -17 40 -16 19 -38 16
-38 -6z"/>
<path d="M3163 1152 c-13 -23 -24 -29 -47 -28 -36 1 -58 -31 -82 -124 -18 -70
-15 -173 5 -193 7 -7 40 -12 81 -12 58 0 72 3 94 24 49 46 76 187 56 285 -6
32 -17 59 -23 61 -58 17 -68 16 -84 -13z m70 -43 c5 -19 7 -68 4 -109 -8 -123
-47 -190 -111 -190 -39 0 -55 16 -66 64 -15 69 30 236 64 236 19 0 19 1 1 -44
-23 -55 -5 -43 39 24 21 34 44 59 49 57 6 -2 15 -19 20 -38z"/>
<path d="M1822 1116 c-44 -15 -102 -63 -102 -85 0 -10 10 -26 21 -37 22 -19
22 -19 14 4 -5 18 -1 30 20 52 49 51 115 64 115 23 0 -28 -53 -113 -99 -160
-48 -51 -81 -62 -116 -39 -20 13 -25 14 -25 3 0 -16 27 -41 54 -51 43 -15 153
83 204 183 27 55 27 65 1 90 -28 26 -48 30 -87 17z"/>
<path d="M2826 1065 c-10 -8 -23 -12 -27 -9 -4 2 -12 -4 -18 -13 -5 -10 -37
-40 -70 -67 -69 -55 -81 -79 -55 -107 23 -26 36 -24 29 4 -5 18 2 32 31 60 21
20 39 35 40 34 7 -7 -43 -188 -51 -185 -5 2 -11 -12 -13 -29 -2 -18 2 -34 7
-34 6 -1 16 -2 22 -3 7 -1 21 47 35 115 13 64 28 128 34 143 12 32 67 67 100
64 21 -3 25 -9 28 -43 5 -56 -25 -157 -60 -206 -28 -39 -31 -40 -71 -34 -51 8
-40 -7 17 -25 39 -13 40 -12 71 22 41 45 75 135 82 219 5 62 4 68 -18 82 -37
24 -91 30 -113 12z"/>
<path d="M1958 1050 c-21 -13 -23 -48 -6 -85 16 -35 29 -31 21 7 -5 23 -2 34
12 45 23 16 135 18 135 2 0 -22 -92 -179 -105 -179 -13 0 -35 -49 -35 -76 0
-8 8 -14 18 -14 12 0 37 39 85 135 l68 135 55 0 54 0 1 -42 c2 -34 3 -37 6
-13 6 41 25 53 70 45 42 -7 42 -9 17 -77 -9 -25 -22 -43 -31 -43 -11 0 -14 -7
-9 -24 8 -34 -32 -90 -69 -96 -18 -3 -31 -12 -33 -24 -3 -15 1 -17 26 -12 16
4 67 2 113 -5 126 -17 134 -17 134 5 0 16 -10 19 -80 22 -103 5 -113 9 -91 32
8 10 21 33 27 51 l12 33 66 -4 c54 -2 66 0 66 12 0 11 -14 16 -57 18 -32 2
-58 6 -58 9 0 3 5 24 12 45 l12 40 45 -7 c80 -13 95 -12 99 9 3 15 0 18 -18
13 -20 -5 -62 4 -105 24 -11 5 -47 10 -80 12 -33 1 -65 5 -70 8 -20 10 -290 9
-307 -1z"/>
</g>
</svg>
